<svg preserveAspectRatio="none" width="100%" height="100%" overflow="visible" style="display: block;" viewBox="0 0 17.819 17.819" fill="none" xmlns="http://www.w3.org/2000/svg">
<path id="Icon" d="M14.7429 5.57619V0.576191M12.2429 3.07619H17.2429M17.2429 8.90952V13.2429C17.2429 14.643 17.2429 15.3431 16.9704 15.8778C16.7307 16.3482 16.3482 16.7307 15.8778 16.9704C15.3431 17.2429 14.643 17.2429 13.2429 17.2429H4.57619C3.17606 17.2429 2.47599 17.2429 1.94121 16.9704C1.47081 16.7307 1.08836 16.3482 0.848674 15.8778C0.576191 15.3431 0.576191 14.643 0.576191 13.2429V4.57619C0.576191 3.17606 0.576191 2.47599 0.848674 1.94121C1.08836 1.47081 1.47081 1.08836 1.94121 0.848674C2.47599 0.576191 3.17606 0.576191 4.57619 0.576191H8.90952M0.697641 15.5148C1.08859 14.1084 2.37852 13.0762 3.90952 13.0762H9.74286C10.5173 13.0762 10.9045 13.0762 11.2265 13.1402C12.5488 13.4033 13.5825 14.4369 13.8455 15.7592C13.9095 16.0812 13.9095 16.4684 13.9095 17.2429M10.5762 6.82619C10.5762 8.66714 9.08381 10.1595 7.24286 10.1595C5.40191 10.1595 3.90952 8.66714 3.90952 6.82619C3.90952 4.98524 5.40191 3.49286 7.24286 3.49286C9.08381 3.49286 10.5762 4.98524 10.5762 6.82619Z" stroke="var(--stroke-0, white)" stroke-width="1.15238" stroke-linecap="round" stroke-linejoin="round"/>
</svg>
