<svg preserveAspectRatio="none" width="100%" height="100%" overflow="visible" style="display: block;" viewBox="0 0 24 24" fill="none" xmlns="http://www.w3.org/2000/svg">
<g id="Group">
<path id="Vector" d="M12 24C18.6274 24 24 18.6274 24 12C24 5.37258 18.6274 0 12 0C5.37258 0 0 5.37258 0 12C0 18.6274 5.37258 24 12 24Z" fill="var(--fill-0, #3E73C4)"/>
<g id="Group_2">
<path id="Vector_2" d="M15.0165 13.593C15.0165 12 14.0565 11.454 12.1365 11.226C10.7655 11.0438 10.4918 10.68 10.4918 10.0425C10.4918 9.405 10.9493 8.9955 11.8628 8.9955C12.6855 8.9955 13.143 9.2685 13.371 9.95175C13.3949 10.0177 13.4384 10.0748 13.4956 10.1154C13.5529 10.156 13.6211 10.1782 13.6912 10.179H14.4225C14.4647 10.1801 14.5068 10.1727 14.546 10.1571C14.5853 10.1415 14.621 10.1181 14.6509 10.0882C14.6809 10.0584 14.7045 10.0229 14.7202 9.98367C14.736 9.94448 14.7437 9.90249 14.7427 9.86025V9.81525C14.6534 9.32093 14.4033 8.86995 14.0313 8.53239C13.6592 8.19482 13.1862 7.98956 12.6855 7.9485V6.8565C12.6855 6.67425 12.5483 6.53775 12.3203 6.492H11.634C11.4518 6.492 11.3145 6.6285 11.2687 6.8565V7.9035C9.897 8.085 9.02925 8.9955 9.02925 10.134C9.02925 11.6355 9.94275 12.2273 11.8628 12.4553C13.143 12.6825 13.554 12.9563 13.554 13.6845C13.554 14.412 12.9143 14.913 12.0458 14.913C10.857 14.913 10.446 14.4128 10.3087 13.7295C10.2637 13.548 10.1257 13.4565 9.9885 13.4565H9.2115C9.16933 13.4555 9.12738 13.463 9.08821 13.4787C9.04903 13.4943 9.01343 13.5177 8.98357 13.5475C8.9537 13.5773 8.93019 13.6129 8.91445 13.652C8.89871 13.6911 8.89107 13.7331 8.892 13.7753V13.8203C9.07425 14.9588 9.80625 15.7778 11.3145 16.0058V17.0985C11.3145 17.28 11.4517 17.4173 11.6797 17.4623H12.366C12.5483 17.4623 12.6855 17.3258 12.7313 17.0985V16.005C14.103 15.7778 15.0165 14.8215 15.0165 13.5922V13.593Z" fill="var(--fill-0, white)"/>
<path id="Vector_3" d="M9.669 18.3727C6.1035 17.0977 4.275 13.1377 5.601 9.633C6.2865 7.7205 7.79475 6.26475 9.669 5.5815C9.852 5.49075 9.94275 5.35425 9.94275 5.12625V4.48875C9.94275 4.30725 9.852 4.17075 9.669 4.125C9.62325 4.125 9.53175 4.125 9.486 4.17C8.45732 4.49124 7.50235 5.0128 6.67607 5.70463C5.84978 6.39646 5.16851 7.24491 4.67148 8.20112C4.17445 9.15733 3.87148 10.2024 3.78001 11.2762C3.68853 12.35 3.81037 13.4312 4.1385 14.4578C4.9605 17.0078 6.92625 18.9652 9.486 19.7842C9.669 19.875 9.852 19.7842 9.897 19.602C9.94275 19.557 9.94275 19.5105 9.94275 19.4197V18.7822C9.94275 18.6457 9.80625 18.4642 9.669 18.3727ZM14.514 4.17075C14.331 4.07925 14.148 4.17075 14.103 4.35225C14.0573 4.398 14.0572 4.44375 14.0572 4.5345V5.172C14.0572 5.35425 14.1937 5.53575 14.331 5.62725C17.8965 6.90225 19.725 10.8623 18.399 14.367C17.7135 16.2795 16.2052 17.7353 14.331 18.4185C14.148 18.5093 14.0572 18.6458 14.0572 18.8738V19.5112C14.0572 19.6927 14.148 19.8292 14.331 19.875C14.3767 19.875 14.4682 19.875 14.514 19.83C15.5427 19.5088 16.4977 18.9872 17.3239 18.2954C18.1502 17.6035 18.8315 16.7551 19.3285 15.7989C19.8255 14.8427 20.1285 13.7976 20.22 12.7238C20.3115 11.65 20.1896 10.5688 19.8615 9.54225C19.0395 6.94725 17.028 4.98975 14.514 4.17075Z" fill="var(--fill-0, white)"/>
</g>
</g>
</svg>
